# xmcd CD database file
#
# Track frame offsets:
#	150
#	27195
#	49103
#	59427
#	93174
#	111149
#	151646
#	187589
#	221019
#	253432
#	259057
#
# Disc length: 3611 seconds
#
# Revision: 0
# Processed by: cddbd v1.5.2PL0 Copyright (c) Steve Scherf et al.
# Submitted via: CDex 1.70beta2
#
DISCID=8d0e190b
DTITLE=Wally Shoup - Blue Purge
DYEAR=2003
DGENRE=Jazz
TTITLE0=Ruffing It
TTITLE1=Depth Charge
TTITLE2=Hue And Cry
TTITLE3=Moiling
TTITLE4=Lunar Dust
TTITLE5=Logger Heads
TTITLE6=Gut Luv
TTITLE7=Purgations
TTITLE8=Get Me One
TTITLE9=Psyche Knot
TTITLE10=Web Core
EXTD=YEAR: 2003
EXTT0=
EXTT1=
EXTT2=
EXTT3=
EXTT4=
EXTT5=
EXTT6=
EXTT7=
EXTT8=
EXTT9=
EXTT10=
PLAYORDER=
